<svg width="245" height="76" viewBox="0 0 245 76" fill="none" xmlns="http://www.w3.org/2000/svg">
<g clip-path="url(#clip0_1_212)">
<g clip-path="url(#clip1_1_212)">
<path d="M17.1166 29.7794L10.1516 29.7513V23.3596H17.1166C20.0048 23.3596 21.4875 24.4515 21.4875 26.5555C21.4875 28.7134 20.0048 29.7794 17.1166 29.7794ZM10.1494 8.94893H16.5072C19.2602 8.94893 20.6657 9.9869 20.6657 12.0391C20.6657 14.1172 19.2602 15.1551 16.4794 15.1551H10.1494V8.94893ZM26.1738 19.2573C29.0619 17.7921 31.1004 15.0213 31.1004 11.4003C31.1025 4.79493 26.678 0.690552 16.7197 0.690552H0.0859375V37.9838H17.6745C27.4741 37.9838 31.8428 33.8816 31.8428 27.274C31.8428 23.625 29.4074 20.483 26.1759 19.2573" fill="#283583"/>
<path d="M59.0785 14.1646C59.0785 16.8815 57.0143 18.5862 53.5683 18.5862H46.7341V9.58337H53.5168C56.9071 9.58337 59.0785 11.0745 59.0785 14.0589V14.1646ZM69.024 13.472V13.3662C69.024 9.68911 68.2451 6.86438 66.0736 4.68056C63.5824 2.17521 59.6622 0.684082 53.9931 0.684082H36.4561V37.9817H46.7341V26.6871H51.2917L58.761 37.9817H70.5775L61.7285 24.9823C66.3376 23.01 69.024 19.2271 69.024 13.472Z" fill="#283583"/>
<path d="M96.3972 22.4813C96.3972 26.7691 93.9597 28.9809 90.0673 28.9809C86.1749 28.9809 83.7374 26.7691 83.7374 22.4813V0.692688H73.646V22.7747C73.646 32.9235 79.4202 38.6765 90.0673 38.6765C100.714 38.6765 106.489 32.9235 106.489 22.7747V0.692688H96.3972V22.4813Z" fill="#283583"/>
<path d="M185.891 4.83591C185.782 4.7237 186.003 4.94812 185.891 4.83807L185.838 4.7906C185.537 4.50143 185.224 4.2209 184.9 3.95548L184.87 3.92958C181.823 1.45444 177.752 0 172.669 0C161.016 0 152.806 7.9908 152.806 19.3372C152.806 30.6835 161.016 38.6485 172.669 38.6485C181.383 38.6485 190.575 31.7776 190.575 19.3372C190.575 18.2733 190.522 17.1534 190.363 15.9816H177.3L171.927 23.3876H180.615C179.555 27.0367 176.881 29.5118 172.219 29.5118C167.479 29.5118 163.108 26.1303 163.108 19.3372C163.108 13.5043 166.816 9.45603 172.06 9.45603C174.371 9.45603 176.171 9.96099 177.639 10.9256C177.808 11.0378 178.085 11.2406 178.246 11.3636L178.827 11.847L180.04 12.8634L185.891 4.83591Z" fill="#283583"/>
<path d="M144.586 4.83591C144.474 4.7237 144.698 4.94812 144.586 4.83807L144.535 4.7906C144.232 4.50143 143.919 4.2209 143.595 3.95548L143.565 3.92958C140.518 1.45444 136.447 0 131.364 0C119.711 0 111.501 7.9908 111.501 19.3372C111.501 30.6835 119.711 38.6485 131.364 38.6485C140.078 38.6485 149.268 31.7776 149.268 19.3372C149.268 18.2733 149.217 17.1534 149.058 15.9816H135.995L130.622 23.3876H139.31C138.25 27.0367 135.576 29.5118 130.913 29.5118C126.174 29.5118 121.803 26.1303 121.803 19.3372C121.803 13.5043 125.51 9.45603 130.755 9.45603C133.066 9.45603 134.866 9.96099 136.334 10.9256C136.503 11.0378 136.78 11.2406 136.941 11.3636L137.522 11.847L138.735 12.8634L144.586 4.83591Z" fill="#283583"/>
<path d="M212.303 40.6467L232.473 75.659H245L218.618 29.7189L212.303 40.6467Z" fill="black"/>
<path d="M203.678 29.7211L177.298 75.6612H230.057L203.678 29.7211Z" fill="#B3B3B3"/>
<path d="M0 47.7722H16.7539V49.833H2.20796V60.2212H15.8484V62.2432H2.20796V75.5252H0V47.7722ZM33.7867 61.4901C33.7867 57.1289 31.2247 55.2256 26.7294 55.2256C21.2492 55.2256 19.9103 58.5553 19.6721 60.7758H21.7234C22.1569 59.1509 22.7491 57.0901 26.6908 57.0901C31.1453 57.0901 31.7376 59.7055 31.7376 61.6886V63.6718H27.9911C22.0775 63.6718 18.728 65.6937 18.728 70.0549C18.728 73.0264 20.6978 76 25.2725 76C29.3322 76 31.0659 73.9392 31.7376 72.5128C31.8148 74.1765 31.935 75.0505 32.0916 75.5252H34.0635C33.9434 74.8908 33.7867 73.4644 33.7867 71.7187V61.4901ZM31.7762 66.1296C31.7762 70.3721 30.9887 74.1377 25.3905 74.1377C22.6311 74.1377 20.8952 72.4329 20.8952 69.9751C20.8952 66.5655 23.5752 65.4154 27.9117 65.4154H31.7762V66.1296ZM37.0998 57.6058H40.7668V71.3238C40.7668 74.4959 42.1851 75.8036 44.7472 75.8036C45.5754 75.8036 46.5217 75.7238 47.1911 75.4476V73.663C46.6011 73.8615 45.7728 73.9003 45.1806 73.9003C43.2881 73.9003 42.816 72.6315 42.816 70.411V57.6058H47.5087V55.7025H42.816V49.5179H40.7668V55.7025H37.0998V57.6058ZM50.502 75.5274H65.2454L65.7196 73.5831H53.064L65.2861 57.6468V55.7025H51.1329V57.6058H62.9194L50.502 73.663V75.5274ZM84.6428 65.8534C84.6814 65.3377 84.6814 64.7831 84.6814 64.2263C84.6814 60.4608 82.7503 55.2278 76.6778 55.2278C70.8843 55.2278 68.0842 60.0637 68.0842 65.7736C68.0842 70.808 70.4101 76.0021 76.4418 76.0021C81.2912 76.0021 83.4197 72.9897 84.248 70.3721H82.1194C81.4499 71.997 80.1883 74.0989 76.5212 74.0989C72.7361 74.0989 70.2127 70.9289 70.1741 65.8534H84.6428ZM70.2921 64.0688C70.7256 59.945 72.5387 57.1311 76.6006 57.1311C80.4243 57.1311 82.5142 60.1845 82.5529 64.0688H70.2921ZM89.49 75.5274H91.5392V65.2578C91.5392 60.4996 94.3008 57.6857 98.3991 57.4073V55.2278C95.1676 55.3853 92.6829 57.1311 91.5392 60.1047C91.5392 57.6058 91.5006 56.2981 91.4619 55.7025H89.4514C89.4514 56.337 89.49 57.7655 89.49 61.0952V75.5274Z" fill="black"/>
</g>
</g>
<defs>
<clipPath id="clip0_1_212">
<rect width="245" height="76" fill="white"/>
</clipPath>
<clipPath id="clip1_1_212">
<rect width="245" height="76" fill="white"/>
</clipPath>
</defs>
</svg>
